<svg width="36" height="36" viewBox="0 0 36 36" fill="none" xmlns="http://www.w3.org/2000/svg">
<path d="M36 27C36 28.0609 35.5786 29.0783 34.8284 29.8284C34.0783 30.5786 33.0609 31 32 31H4C2.93913 31 1.92172 30.5786 1.17157 29.8284C0.421427 29.0783 0 28.0609 0 27V9C0 7.93913 0.421427 6.92172 1.17157 6.17157C1.92172 5.42143 2.93913 5 4 5H32C33.0609 5 34.0783 5.42143 34.8284 6.17157C35.5786 6.92172 36 7.93913 36 9V27Z" fill="#009B3A"/>
<path d="M32.728 18L18 29.124L3.27197 18L18 6.875L32.728 18Z" fill="#FEDF01"/>
<path d="M17.976 24.382C21.5427 24.382 24.434 21.4907 24.434 17.924C24.434 14.3573 21.5427 11.466 17.976 11.466C14.4094 11.466 11.518 14.3573 11.518 17.924C11.518 21.4907 14.4094 24.382 17.976 24.382Z" fill="#002776"/>
<path d="M12.277 14.887C11.9416 15.5191 11.7144 16.2029 11.605 16.91C15.6 16.62 21.022 18.801 23.349 21.505C23.751 20.901 24.049 20.225 24.232 19.501C21.36 16.693 16.315 14.871 12.277 14.887Z" fill="#CBE9D4"/>
<path d="M12 18.233H13V19.233H12V18.233ZM13 20.233H14V21.233H13V20.233Z" fill="#88C9F9"/>
<path d="M15 18.233H16V19.233H15V18.233ZM17 19.233H18V20.233H17V19.233ZM21 21.233H22V22.233H21V21.233ZM18 22.233H19V23.233H18V22.233ZM21 16.233H22V17.233H21V16.233Z" fill="#55ACEE"/>
<path d="M19 20.233H20V21.233H19V20.233Z" fill="#3B88C3"/>
</svg>
