<svg width="36" height="36" viewBox="0 0 36 36" fill="none" xmlns="http://www.w3.org/2000/svg">
<g clip-path="url(#clip0_12_32)">
<path d="M36 27C36 28.0609 35.5786 29.0783 34.8284 29.8284C34.0783 30.5786 33.0609 31 32 31H24V5H32C33.0609 5 34.0783 5.42143 34.8284 6.17157C35.5786 6.92172 36 7.93913 36 9V27Z" fill="#ED2939"/>
<path d="M4 5C2.93913 5 1.92172 5.42143 1.17157 6.17157C0.421427 6.92172 0 7.93913 0 9L0 27C0 28.0609 0.421427 29.0783 1.17157 29.8284C1.92172 30.5786 2.93913 31 4 31H12V5H4Z" fill="#002495"/>
<path d="M12 5H24V31H12V5Z" fill="#EEEEEE"/>
</g>
<defs>
<clipPath id="clip0_12_32">
<rect width="36" height="36" fill="white"/>
</clipPath>
</defs>
</svg>
