<svg width="36" height="36" viewBox="0 0 36 36" fill="none" xmlns="http://www.w3.org/2000/svg">
<path d="M36 27C36 28.0609 35.5786 29.0783 34.8284 29.8284C34.0783 30.5786 33.0609 31 32 31H4C2.93913 31 1.92172 30.5786 1.17157 29.8284C0.421427 29.0783 0 28.0609 0 27V9C0 7.93913 0.421427 6.92172 1.17157 6.17157C1.92172 5.42143 2.93913 5 4 5H32C33.0609 5 34.0783 5.42143 34.8284 6.17157C35.5786 6.92172 36 7.93913 36 9V27Z" fill="#006600"/>
<path d="M32 5H15V31H32C33.0609 31 34.0783 30.5786 34.8284 29.8284C35.5786 29.0783 36 28.0609 36 27V9C36 7.93913 35.5786 6.92172 34.8284 6.17157C34.0783 5.42143 33.0609 5 32 5Z" fill="#D52B1E"/>
<path d="M15 10C12.8783 10 10.8434 10.8429 9.34315 12.3431C7.84285 13.8434 7 15.8783 7 18C7 20.1217 7.84285 22.1566 9.34315 23.6569C10.8434 25.1571 12.8783 26 15 26C17.1217 26 19.1566 25.1571 20.6569 23.6569C22.1571 22.1566 23 20.1217 23 18C23 15.8783 22.1571 13.8434 20.6569 12.3431C19.1566 10.8429 17.1217 10 15 10ZM8.887 14.594L10.489 16.196L8.029 17.426C8.10839 16.4314 8.40102 15.4655 8.887 14.594ZM8.029 18.573L12.429 20.78L9.723 22.584L9.737 22.605C8.74888 21.4796 8.14992 20.0657 8.029 18.573ZM14 24.92C13.0833 24.7892 12.202 24.4764 11.408 24H14V24.92ZM14 23H10.901L14 20.934V23ZM14 19.732L13.393 20.137L9.118 18L11.234 16.942L14 19.707V19.732ZM14 18.293L10.457 14.75L14 15.34V18.293ZM14 14.301L9.568 13.588C10.677 12.2239 12.2596 11.3283 14 11.08V14.301ZM21.113 14.594C21.5991 15.4658 21.8918 16.432 21.971 17.427L19.511 16.197L21.113 14.594ZM16 11.08C17.7402 11.3287 19.3228 12.2242 20.432 13.588L16 14.301V11.08ZM16 15.34L19.543 14.749L16 18.293V15.34ZM16 19.707L18.765 16.942L20.882 18L16.608 20.137L16 19.732V19.707ZM16 24.92V24H18.592C17.798 24.4764 16.9167 24.7892 16 24.92ZM16 23V20.934L19.099 23H16ZM20.264 22.605L20.278 22.584L17.572 20.78L21.972 18.573C21.8502 20.0655 21.2513 21.4792 20.264 22.605Z" fill="#FFCC4D"/>
<path d="M11 13V20C11 21.0609 11.4214 22.0783 12.1716 22.8284C12.9217 23.5786 13.9391 24 15 24C16.0609 24 17.0783 23.5786 17.8284 22.8284C18.5786 22.0783 19 21.0609 19 20V13H11Z" fill="#D52B1E"/>
<path d="M12 14V20C12 20.7956 12.3161 21.5587 12.8787 22.1213C13.4413 22.6839 14.2044 23 15 23C15.7956 23 16.5587 22.6839 17.1213 22.1213C17.6839 21.5587 18 20.7956 18 20V14H12Z" fill="white"/>
<path d="M13 17H17V19H13V17Z" fill="#829ACD"/>
<path d="M14 16H16V20H14V16Z" fill="#829ACD"/>
<path d="M12 17H13V19H12V17ZM14 17H16V19H14V17ZM17 17H18V19H17V17ZM14 20H16V22H14V20ZM14 14H16V16H14V14Z" fill="#003399"/>
</svg>
